<svg xmlns="http://www.w3.org/2000/svg" version="1.1" xmlns:xlink="http://www.w3.org/1999/xlink" xmlns:svgjs="http://svgjs.dev/svgjs" width="1500" height="1500" viewBox="0 0 1500 1500"><rect width="1500" height="1500" fill="#ffffff"></rect><g transform="matrix(0.6666666666666666,0,0,0.6666666666666666,249.45599792477634,277.3837031993234)"><svg viewBox="0 0 261 247" data-background-color="#ffffff" preserveAspectRatio="xMidYMid meet" height="1419" width="1500" xmlns="http://www.w3.org/2000/svg" xmlns:xlink="http://www.w3.org/1999/xlink"><g id="tight-bounds" transform="matrix(1,0,0,1,0.14211154966471895,-0.09997365579205564)"><svg viewBox="0 0 260.7159039087019 247.19999999999996" height="247.19999999999996" width="260.7159039087019"><g><svg viewBox="0 0 260.7159039087019 247.19999999999996" height="247.19999999999996" width="260.7159039087019"><g><svg viewBox="0 0 260.7159039087019 247.19999999999996" height="247.19999999999996" width="260.7159039087019"><g id="textblocktransform"><svg viewBox="0 0 260.7159039087019 247.19999999999996" height="247.19999999999996" width="260.7159039087019" id="textblock"><g><svg viewBox="0 0 260.7159039087019 247.19999999999996" height="247.19999999999996" width="260.7159039087019"><path d="M260.106 53.02C258.88 27.36 255.387 20.227 255.387 20.227 244.662-6.202 231.277-0.506 219.254 3.292 198.025 3.446 176.882 9.091 155.702 12.119 111.247 12.581 66.411 4.986 22.176 23.717 18.021 29.464-4.311 24.846 0.739 56.304 2.063 69.39 6.892 83.913 6.745 95.922 7.407 98.026 8.326 93.202 8.718 96.23 10.091 104.39 12.334 100.541 14.173 105.365 11.611 118.246 13.449 128.971 15.202 140.21 12.113 143.135 8.154 141.749 6.377 151.449 6.193 158.479 5.201 157.145 4.11 156.837 3.313 156.632 1.707 157.402 1.977 159.608 2.896 167.152-1.05 171.514 1.425 178.904-0.278 186.91 2.602 193.838 2.21 202.511 2.161 204.255 2.431 205.744 2.86 206.154 4.759 208.361 1.989 212.672 2.283 217.342 21.772 249.262 42.915 227.195 62.881 241.872 68.066 231.608 64.168 245.516 66.239 243.36 67.857 240.846 69.034 251.263 70.86 245.362 71.142 243.668 70.713 239.665 71.718 240.435 72.245 240.846 72.711 240.743 72.785 238.382 72.895 234.841 71.927 237.048 71.669 235.201 74.452 225.861 73.765 248.081 76.376 247.158 76.253 244.438 75.493 240.538 77.05 241.051 78.594 237.151 78.643 233.918 80.016 242.693 80.065 244.592 80.31 245.926 80.703 246.85 84.992 237.305 89.258 250.237 93.756 245.926 96.514 241.205 99.161 248.492 101.956 246.696 102.936 245.259 103.929 242.693 104.873 247.004 116.431 247.928 128.749 244.079 139.707 247.158 168.988 241.41 200.28 249.518 231.155 241.923 238.435 238.998 245.998 234.841 253.095 231.506 253.095 231.506 258.843 222.371 258.843 181.316S260.069 145.393 260.253 112.703C260.436 80.013 261.294 78.679 260.069 53.02Z" opacity="1" fill="#000000" data-fill-palette-color="tertiary"></path><g transform="matrix(1,0,0,1,55.76832,26.230666666666668)"><svg width="149.17926390870184" viewBox="3.55 -35 26.849999999999998 35.05" height="194.73866666666663" data-palette-color="#ffffff"><path d="M30.4-35L30.4 0.05 22.8 0.05 10.95-21.5 10.95 0 3.55 0 3.55-35 10.95-35 23.15-12.4 23.15-35 30.4-35Z" opacity="1" transform="matrix(1,0,0,1,0,0)" fill="#ffffff" class="wordmark-text-0" data-fill-palette-color="quaternary" id="text-0"></path></svg></g></svg></g></svg></g></svg></g></svg></g><defs></defs></svg><rect width="260.7159039087019" height="247.19999999999996" fill="none" stroke="none" visibility="hidden"></rect></g></svg></g></svg>